<svg xmlns="http://www.w3.org/2000/svg" viewBox="0 0 850 300" width="850" height="300">
  <defs><marker id="a3" markerWidth="8" markerHeight="6" refX="8" refY="3" orient="auto"><polygon points="0 0, 8 3, 0 6" fill="#182B49"/></marker></defs>
  <rect x="20" y="60" width="130" height="180" rx="10" fill="#FFF3E0" stroke="#E65100" stroke-width="2"/>
  <text x="85" y="85" text-anchor="middle" font-size="13" font-weight="bold" fill="#E65100" font-family="Arial">Input: Jet</text>
  <text x="85" y="108" text-anchor="middle" font-size="11" fill="#333" font-family="Arial">~100 particles</text>
  <text x="85" y="126" text-anchor="middle" font-size="11" fill="#333" font-family="Arial">with energy,</text>
  <text x="85" y="144" text-anchor="middle" font-size="11" fill="#333" font-family="Arial">direction, type</text>
  <circle cx="55" cy="180" r="5" fill="#E65100"/><circle cx="72" cy="188" r="4" fill="#E65100"/>
  <circle cx="90" cy="176" r="5" fill="#E65100"/><circle cx="108" cy="185" r="4" fill="#E65100"/>
  <circle cx="60" cy="210" r="4" fill="#E65100"/><circle cx="80" cy="215" r="5" fill="#E65100"/>
  <circle cx="100" cy="208" r="4" fill="#E65100"/><circle cx="115" cy="200" r="4" fill="#E65100"/>
  <line x1="155" y1="150" x2="200" y2="150" stroke="#182B49" stroke-width="2.5" marker-end="url(#a3)"/>
  <rect x="205" y="40" width="300" height="220" rx="10" fill="#E8EAF6" stroke="#283593" stroke-width="2.5"/>
  <text x="355" y="68" text-anchor="middle" font-size="13" font-weight="bold" fill="#283593" font-family="Arial">Sophon Backbone</text>
  <text x="355" y="86" text-anchor="middle" font-size="11" fill="#283593" font-family="Arial">(Particle Transformer)</text>
  <rect x="225" y="100" width="260" height="26" rx="5" fill="#5C6BC0"/><text x="355" y="118" text-anchor="middle" font-size="11" fill="white" font-family="Arial">Attention Block 1</text>
  <rect x="225" y="132" width="260" height="26" rx="5" fill="#5C6BC0"/><text x="355" y="150" text-anchor="middle" font-size="11" fill="white" font-family="Arial">Attention Block 2</text>
  <rect x="225" y="164" width="260" height="26" rx="5" fill="#7986CB"/><text x="355" y="182" text-anchor="middle" font-size="11" fill="white" font-family="Arial">. . . (8 total)</text>
  <rect x="225" y="196" width="260" height="26" rx="5" fill="#5C6BC0"/><text x="355" y="214" text-anchor="middle" font-size="11" fill="white" font-family="Arial">Attention Block 8</text>
  <text x="355" y="248" text-anchor="middle" font-size="11" fill="#283593" font-family="Arial">2.2 million parameters</text>
  <line x1="510" y1="150" x2="555" y2="150" stroke="#182B49" stroke-width="2.5" marker-end="url(#a3)"/>
  <rect x="560" y="100" width="110" height="100" rx="10" fill="#E8F5E9" stroke="#2E7D32" stroke-width="2.5"/>
  <text x="615" y="130" text-anchor="middle" font-size="13" font-weight="bold" fill="#2E7D32" font-family="Arial">128-dim</text>
  <text x="615" y="150" text-anchor="middle" font-size="13" font-weight="bold" fill="#2E7D32" font-family="Arial">Embedding</text>
  <text x="615" y="175" text-anchor="middle" font-size="10" fill="#555" font-family="Arial">"fingerprint"</text>
  <line x1="675" y1="150" x2="715" y2="150" stroke="#182B49" stroke-width="2.5" marker-end="url(#a3)"/>
  <rect x="720" y="55" width="110" height="190" rx="10" fill="#FFF8E1" stroke="#F9A825" stroke-width="2"/>
  <text x="775" y="80" text-anchor="middle" font-size="12" font-weight="bold" fill="#C69214" font-family="Arial">188 Classes</text>
  <text x="775" y="105" text-anchor="middle" font-size="10" fill="#333" font-family="Arial">H to bb</text>
  <text x="775" y="122" text-anchor="middle" font-size="10" fill="#333" font-family="Arial">H to cc</text>
  <text x="775" y="139" text-anchor="middle" font-size="10" fill="#333" font-family="Arial">W to qq</text>
  <text x="775" y="156" text-anchor="middle" font-size="10" fill="#333" font-family="Arial">Z to qq</text>
  <text x="775" y="173" text-anchor="middle" font-size="10" fill="#333" font-family="Arial">t to bqq</text>
  <text x="775" y="193" text-anchor="middle" font-size="10" fill="#999" font-family="Arial">...</text>
  <text x="775" y="215" text-anchor="middle" font-size="10" fill="#999" font-family="Arial">(+183 more)</text>
</svg>